<svg width="893" height="201" viewBox="0 0 893 201" fill="none" xmlns="http://www.w3.org/2000/svg">
<path d="M135.224 86.52C133.688 86.52 132.493 86.9467 131.64 87.8C130.872 88.6533 130.147 89.9333 129.464 91.64L110.136 140.024L93.624 99.576L77.24 139.896L58.296 93.048C57.6987 91.5973 56.9307 90.1467 55.992 88.696C55.1387 87.2453 53.9867 86.52 52.536 86.52V85.24H70.072V86.52C69.4747 86.52 68.7067 86.8187 67.768 87.416C66.9147 87.928 66.488 88.824 66.488 90.104C66.488 90.2747 66.5307 90.6587 66.616 91.256C66.7867 91.768 66.9573 92.2373 67.128 92.664L79.672 123.64L95.8 83.832L112.056 123.64L124.728 92.152C125.155 90.872 125.368 89.976 125.368 89.464C125.368 88.7813 125.155 88.1413 124.728 87.544C124.301 86.9467 123.576 86.6053 122.552 86.52V85.24H135.224V86.52ZM150.05 113.144C150.391 116.131 151.117 118.989 152.226 121.72C153.335 124.365 154.786 126.712 156.578 128.76C158.455 130.808 160.717 132.472 163.362 133.752C166.007 134.947 169.079 135.544 172.578 135.544C174.455 135.544 176.418 135.288 178.466 134.776C180.599 134.179 182.562 133.368 184.354 132.344C186.146 131.32 187.725 130.083 189.09 128.632C190.541 127.096 191.522 125.389 192.034 123.512H193.186V133.112C192.674 133.112 192.077 133.283 191.394 133.624C190.797 133.965 190.071 134.392 189.218 134.904C187.511 135.928 185.207 137.037 182.306 138.232C179.405 139.341 175.565 139.896 170.786 139.896C166.946 139.896 163.277 139.341 159.778 138.232C156.365 137.123 153.335 135.416 150.69 133.112C148.045 130.808 145.911 127.864 144.29 124.28C142.754 120.696 141.986 116.429 141.986 111.48C141.986 108.323 142.498 105.123 143.522 101.88C144.631 98.6373 146.253 95.736 148.386 93.176C150.605 90.5307 153.421 88.3973 156.834 86.776C160.247 85.1547 164.343 84.344 169.122 84.344C173.389 84.344 177.101 85.0693 180.258 86.52C183.501 87.9707 186.146 89.976 188.194 92.536C190.327 95.096 191.906 98.1253 192.93 101.624C193.954 105.123 194.466 108.963 194.466 113.144H150.05ZM168.61 88.568C165.623 88.568 163.021 89.1653 160.802 90.36C158.669 91.5547 156.834 93.0907 155.298 94.968C153.762 96.8453 152.567 98.9787 151.714 101.368C150.861 103.757 150.306 106.147 150.05 108.536H186.53C186.445 106.061 185.975 103.629 185.122 101.24C184.354 98.8507 183.245 96.7173 181.794 94.84C180.343 92.9627 178.509 91.4693 176.29 90.36C174.071 89.1653 171.511 88.568 168.61 88.568ZM232.527 84.344C237.135 84.344 241.103 85.112 244.431 86.648C247.844 88.184 250.66 90.232 252.879 92.792C255.098 95.352 256.762 98.296 257.871 101.624C258.98 104.867 259.535 108.195 259.535 111.608C259.535 115.107 258.98 118.563 257.871 121.976C256.762 125.304 255.055 128.333 252.751 131.064C250.532 133.709 247.759 135.843 244.431 137.464C241.103 139.085 237.263 139.896 232.911 139.896C229.668 139.896 226.724 139.256 224.079 137.976C221.434 136.611 219.343 134.989 217.807 133.112V139H205.263V137.72C205.86 137.72 206.415 137.464 206.927 136.952C207.439 136.44 207.866 135.843 208.207 135.16C208.634 134.477 208.932 133.752 209.103 132.984C209.274 132.131 209.359 131.363 209.359 130.68V65.4C209.359 63.9493 209.146 62.584 208.719 61.304C208.292 60.024 207.055 59.3413 205.007 59.256V57.976L217.807 54.008V90.616C219.77 88.6533 222.074 87.1173 224.719 86.008C227.45 84.8987 230.052 84.344 232.527 84.344ZM233.807 135.544C236.879 135.373 239.524 134.648 241.743 133.368C243.962 132.003 245.796 130.296 247.247 128.248C248.783 126.2 249.892 123.896 250.575 121.336C251.343 118.691 251.727 116.003 251.727 113.272C251.727 110.2 251.3 107.213 250.447 104.312C249.594 101.411 248.314 98.808 246.607 96.504C244.986 94.2 242.938 92.3653 240.463 91C237.988 89.5493 235.172 88.824 232.015 88.824C230.223 88.824 228.474 89.2507 226.767 90.104C225.06 90.872 223.524 91.9387 222.159 93.304C220.879 94.584 219.812 96.1627 218.959 98.04C218.191 99.832 217.807 101.752 217.807 103.8V119.672C217.807 122.147 218.276 124.365 219.215 126.328C220.154 128.291 221.391 129.955 222.927 131.32C224.463 132.685 226.17 133.752 228.047 134.52C230.01 135.203 231.93 135.544 233.807 135.544ZM304.677 139V132.472L304.037 133.112C301.904 135.245 299.429 136.909 296.613 138.104C293.882 139.299 290.554 139.896 286.629 139.896C283.642 139.896 281.082 139.555 278.949 138.872C276.816 138.189 275.066 137.251 273.701 136.056C272.336 134.776 271.312 133.325 270.629 131.704C270.032 130.083 269.733 128.376 269.733 126.584C269.733 123.683 270.501 121.123 272.037 118.904C273.658 116.685 275.962 114.723 278.949 113.016C281.936 111.309 285.562 109.773 289.829 108.408C294.181 106.957 299.13 105.549 304.677 104.184C304.506 100.856 303.824 98.168 302.629 96.12C301.434 94.072 300.026 92.4933 298.405 91.384C296.784 90.1893 295.077 89.4213 293.285 89.08C291.493 88.6533 289.957 88.44 288.677 88.44C286.458 88.44 284.496 88.7813 282.789 89.464C281.168 90.1467 279.717 91.0427 278.437 92.152C277.242 93.176 276.218 94.328 275.365 95.608C274.512 96.8027 273.829 97.9547 273.317 99.064H272.165V89.72C272.848 89.6347 273.488 89.4213 274.085 89.08C274.682 88.7387 275.408 88.3973 276.261 88.056C277.541 87.544 279.29 86.8187 281.509 85.88C283.728 84.856 286.842 84.344 290.853 84.344C295.546 84.344 299.344 84.9413 302.245 86.136C305.146 87.3307 307.365 88.9093 308.901 90.872C310.522 92.8347 311.589 95.096 312.101 97.656C312.613 100.131 312.869 102.691 312.869 105.336V130.68C312.869 132.387 313.253 134.008 314.021 135.544C314.789 136.995 315.813 137.72 317.093 137.72V139H304.677ZM304.677 126.84V108.536L303.397 108.792C301.349 109.304 298.832 109.987 295.845 110.84C292.944 111.693 290.17 112.803 287.525 114.168C284.88 115.533 282.618 117.155 280.741 119.032C278.864 120.909 277.925 123.085 277.925 125.56C277.925 128.291 279.034 130.552 281.253 132.344C283.472 134.136 286.373 135.032 289.957 135.032C292.773 135.032 295.248 134.435 297.381 133.24C299.514 131.96 301.477 130.339 303.269 128.376L304.677 126.84ZM380.073 130.68C380.073 131.277 380.158 132.003 380.329 132.856C380.5 133.624 380.713 134.392 380.969 135.16C381.31 135.843 381.737 136.44 382.249 136.952C382.761 137.464 383.358 137.72 384.041 137.72V139H371.625V131.96C370.345 133.837 368.468 135.672 365.993 137.464C363.518 139.256 360.318 140.152 356.393 140.152C351.444 140.152 347.518 139.299 344.617 137.592C341.716 135.885 339.497 133.709 337.961 131.064C336.425 128.419 335.444 125.56 335.017 122.488C334.59 119.331 334.377 116.387 334.377 113.656V95.352C334.377 94.584 334.334 93.8587 334.249 93.176C334.249 92.408 334.078 91.7253 333.737 91.128C333.481 90.5307 333.054 90.0613 332.457 89.72C331.86 89.2933 331.006 89.08 329.897 89.08V87.928L342.825 83.832V116.472C342.825 122.957 344.233 127.736 347.049 130.808C349.865 133.88 353.321 135.416 357.417 135.416C359.636 135.416 361.598 134.947 363.305 134.008C365.097 132.984 366.59 131.789 367.785 130.424C369.065 129.059 370.004 127.651 370.601 126.2C371.284 124.749 371.625 123.555 371.625 122.616V95.352C371.625 94.584 371.582 93.8587 371.497 93.176C371.497 92.408 371.326 91.7253 370.985 91.128C370.729 90.5307 370.302 90.0613 369.705 89.72C369.108 89.2933 368.254 89.08 367.145 89.08V87.928L380.073 83.832V130.68ZM409.054 89.592V120.44C409.054 122.659 409.097 124.664 409.182 126.456C409.267 128.248 409.481 129.741 409.822 130.936C410.163 132.131 410.675 133.069 411.358 133.752C412.041 134.349 412.979 134.648 414.174 134.648C415.966 134.648 417.63 133.795 419.166 132.088C420.787 130.381 421.811 128.333 422.238 125.944H423.39V135.288C422.622 135.288 421.982 135.544 421.47 136.056C420.787 136.653 419.806 137.293 418.526 137.976C417.331 138.659 415.497 139 413.022 139C409.95 139 407.561 138.403 405.854 137.208C404.147 136.013 402.91 134.435 402.142 132.472C401.374 130.509 400.905 128.333 400.734 125.944C400.649 123.555 400.606 121.123 400.606 118.648V89.592H393.438V85.24H400.606V73.848C400.606 72.3973 400.393 71.0747 399.966 69.88C399.625 68.6 398.387 67.9173 396.254 67.832V66.552L409.054 62.456V85.24H423.39V89.592H409.054ZM484.466 130.68C484.466 131.363 484.551 132.131 484.722 132.984C484.893 133.752 485.149 134.477 485.49 135.16C485.917 135.843 486.343 136.44 486.77 136.952C487.282 137.464 487.879 137.72 488.562 137.72V139H472.05V137.72C472.647 137.72 473.202 137.464 473.714 136.952C474.226 136.44 474.653 135.843 474.994 135.16C475.421 134.477 475.719 133.752 475.89 132.984C476.061 132.131 476.146 131.363 476.146 130.68V106.872C476.146 103.8 475.719 101.112 474.866 98.808C474.013 96.504 472.861 94.584 471.41 93.048C469.959 91.512 468.295 90.4027 466.418 89.72C464.626 88.952 462.791 88.568 460.914 88.568C459.037 88.568 457.159 88.952 455.282 89.72C453.49 90.4027 451.869 91.384 450.418 92.664C449.053 93.944 447.901 95.5227 446.962 97.4C446.109 99.192 445.682 101.197 445.682 103.416V130.68C445.682 131.363 445.767 132.131 445.938 132.984C446.109 133.752 446.365 134.477 446.706 135.16C447.133 135.843 447.559 136.44 447.986 136.952C448.498 137.464 449.095 137.72 449.778 137.72V139H433.138V137.72C433.735 137.72 434.29 137.464 434.802 136.952C435.314 136.44 435.741 135.843 436.082 135.16C436.509 134.477 436.807 133.752 436.978 132.984C437.149 132.131 437.234 131.363 437.234 130.68V65.272C437.234 63.8213 437.021 62.456 436.594 61.176C436.167 59.896 434.93 59.2133 432.882 59.128V57.848L445.682 53.88V90.872C446.279 90.1893 447.047 89.464 447.986 88.696C448.925 87.8427 450.034 87.0747 451.314 86.392C452.679 85.624 454.215 85.0267 455.922 84.6C457.714 84.088 459.805 83.832 462.194 83.832C466.205 83.832 469.618 84.5147 472.434 85.88C475.25 87.2453 477.554 89.0373 479.346 91.256C481.138 93.3893 482.418 95.7787 483.186 98.424C484.039 100.984 484.466 103.501 484.466 105.976V130.68ZM552.591 130.68C552.591 131.363 552.676 132.131 552.847 132.984C553.018 133.752 553.274 134.477 553.615 135.16C554.042 135.843 554.468 136.44 554.895 136.952C555.407 137.464 556.004 137.72 556.687 137.72V139H540.175V137.72C540.772 137.72 541.327 137.464 541.839 136.952C542.351 136.44 542.778 135.843 543.119 135.16C543.546 134.477 543.844 133.752 544.015 132.984C544.186 132.131 544.271 131.363 544.271 130.68V106.872C544.271 103.8 543.844 101.112 542.991 98.808C542.138 96.504 540.986 94.584 539.535 93.048C538.084 91.512 536.42 90.4027 534.543 89.72C532.751 88.952 530.916 88.568 529.039 88.568C527.162 88.568 525.284 88.952 523.407 89.72C521.615 90.488 519.994 91.512 518.543 92.792C517.178 93.9867 516.026 95.4373 515.087 97.144C514.234 98.7653 513.807 100.472 513.807 102.264V130.68C513.807 131.363 513.892 132.131 514.063 132.984C514.234 133.752 514.49 134.477 514.831 135.16C515.258 135.843 515.684 136.44 516.111 136.952C516.623 137.464 517.22 137.72 517.903 137.72V139H501.263V137.72C501.86 137.72 502.415 137.464 502.927 136.952C503.439 136.44 503.866 135.843 504.207 135.16C504.634 134.477 504.932 133.752 505.103 132.984C505.274 132.131 505.359 131.363 505.359 130.68V95.352C505.359 93.9013 505.146 92.536 504.719 91.256C504.292 89.8907 503.055 89.1653 501.007 89.08V87.928L513.807 83.832V90.872C514.404 90.1893 515.172 89.464 516.111 88.696C517.05 87.8427 518.159 87.0747 519.439 86.392C520.804 85.624 522.34 85.0267 524.047 84.6C525.839 84.088 527.93 83.832 530.319 83.832C534.33 83.832 537.743 84.5147 540.559 85.88C543.375 87.2453 545.679 89.0373 547.471 91.256C549.263 93.3893 550.543 95.7787 551.311 98.424C552.164 100.984 552.591 103.501 552.591 105.976V130.68ZM567.212 112.632V106.232H596.268V112.632H567.212ZM634.649 84.344C639.257 84.344 643.225 85.1547 646.553 86.776C649.966 88.312 652.782 90.36 655.001 92.92C657.305 95.48 659.012 98.424 660.121 101.752C661.23 105.08 661.785 108.493 661.785 111.992C661.785 115.405 661.23 118.776 660.121 122.104C659.097 125.432 657.476 128.419 655.257 131.064C653.124 133.709 650.436 135.843 647.193 137.464C643.95 139.085 640.11 139.896 635.673 139.896C633.028 139.896 630.297 139.213 627.481 137.848C624.75 136.397 622.276 134.605 620.057 132.472V157.56C620.057 158.243 620.142 158.968 620.313 159.736C620.484 160.589 620.74 161.357 621.081 162.04C621.508 162.723 621.934 163.32 622.361 163.832C622.873 164.344 623.47 164.6 624.153 164.6V165.88H607.513V164.6C608.11 164.6 608.665 164.344 609.177 163.832C609.689 163.32 610.116 162.723 610.457 162.04C610.884 161.357 611.182 160.589 611.353 159.736C611.524 158.968 611.609 158.243 611.609 157.56V92.792C611.609 92.024 611.566 91.2987 611.481 90.616C611.481 89.848 611.353 89.208 611.097 88.696C610.841 88.0987 610.414 87.6293 609.817 87.288C609.305 86.8613 608.537 86.6053 607.513 86.52V85.24H620.057V90.872C621.764 88.824 623.812 87.2453 626.201 86.136C628.676 84.9413 631.492 84.344 634.649 84.344ZM635.801 135.544C638.788 135.459 641.39 134.776 643.609 133.496C645.828 132.216 647.662 130.552 649.113 128.504C650.564 126.456 651.63 124.195 652.313 121.72C652.996 119.16 653.337 116.515 653.337 113.784C653.337 110.712 652.91 107.683 652.057 104.696C651.204 101.709 649.966 99.064 648.345 96.76C646.724 94.3707 644.718 92.4507 642.329 91C640.025 89.464 637.38 88.696 634.393 88.696C632.601 88.696 630.809 89.0373 629.017 89.72C627.31 90.4027 625.774 91.384 624.409 92.664C623.129 93.944 622.062 95.48 621.209 97.272C620.441 98.9787 620.057 100.899 620.057 103.032V119.8C620.057 122.104 620.526 124.237 621.465 126.2C622.404 128.077 623.598 129.741 625.049 131.192C626.585 132.557 628.292 133.624 630.169 134.392C632.046 135.16 633.924 135.544 635.801 135.544ZM670.444 67.448H671.596C672.023 67.448 672.535 67.2347 673.132 66.808C673.815 66.3813 674.54 65.912 675.308 65.4C676.161 64.8027 677.143 64.12 678.252 63.352C679.447 62.584 680.769 61.9013 682.22 61.304C683.756 60.6213 685.463 60.0667 687.34 59.64C689.217 59.2133 691.308 59 693.612 59C696.513 59 699.329 59.4267 702.06 60.28C704.791 61.048 707.223 62.2853 709.356 63.992C711.489 65.6133 713.196 67.704 714.476 70.264C715.756 72.824 716.396 75.896 716.396 79.48C716.396 82.4667 715.884 85.1973 714.86 87.672C713.836 90.1467 712.428 92.4507 710.636 94.584C708.929 96.7173 706.967 98.7653 704.748 100.728C702.615 102.605 700.396 104.483 698.092 106.36C695.873 108.152 693.697 109.987 691.564 111.864C689.516 113.741 687.639 115.704 685.932 117.752C684.311 119.8 682.945 122.019 681.836 124.408C680.727 126.712 680.087 129.187 679.916 131.832H706.54C709.783 131.832 712.343 131.277 714.22 130.168C716.097 128.973 717.079 127.053 717.164 124.408H718.316V139H670.956C670.956 135.16 671.596 131.619 672.876 128.376C674.156 125.048 675.82 122.019 677.868 119.288C679.916 116.472 682.177 113.869 684.652 111.48C687.212 109.091 689.729 106.787 692.204 104.568C694.252 102.776 696.215 100.984 698.092 99.192C700.055 97.4 701.761 95.608 703.212 93.816C704.748 91.9387 705.943 90.0187 706.796 88.056C707.735 86.008 708.204 83.8747 708.204 81.656C708.204 78.84 707.692 76.3227 706.668 74.104C705.729 71.8853 704.449 70.008 702.828 68.472C701.292 66.936 699.5 65.784 697.452 65.016C695.404 64.1627 693.356 63.736 691.308 63.736C686.956 63.736 683.116 65.0587 679.788 67.704C676.46 70.264 673.772 73.592 671.724 77.688H670.444V67.448ZM772.807 115.064C772.807 118.051 772.21 121.08 771.015 124.152C769.906 127.139 768.199 129.827 765.895 132.216C763.591 134.605 760.647 136.568 757.063 138.104C753.564 139.555 749.468 140.28 744.775 140.28C742.471 140.28 740.21 140.024 737.991 139.512C735.772 139 733.682 138.488 731.719 137.976C730.268 137.549 728.946 137.208 727.751 136.952C726.556 136.611 725.49 136.44 724.551 136.44V126.328C726.77 129.315 729.671 131.661 733.255 133.368C736.924 135.075 740.594 135.928 744.263 135.928C747.591 135.928 750.492 135.416 752.967 134.392C755.442 133.368 757.49 132.003 759.111 130.296C760.818 128.504 762.055 126.413 762.823 124.024C763.676 121.549 764.103 118.904 764.103 116.088C764.103 112.675 763.506 109.688 762.311 107.128C761.202 104.568 759.708 102.435 757.831 100.728C755.954 98.936 753.778 97.6133 751.303 96.76C748.914 95.9067 746.482 95.48 744.007 95.48C741.276 95.48 738.29 96.12 735.047 97.4C731.804 98.5947 728.476 100.515 725.063 103.16L741.447 60.28H773.447L770.887 67.448H744.135C742.684 71.288 741.106 75.256 739.399 79.352C737.778 83.448 736.242 87.4587 734.791 91.384C736.839 90.4453 738.759 89.8053 740.551 89.464C742.343 89.1227 744.263 88.952 746.311 88.952C749.724 88.952 753.01 89.5493 756.167 90.744C759.324 91.9387 762.14 93.6453 764.615 95.864C767.09 98.0827 769.052 100.813 770.503 104.056C772.039 107.299 772.807 110.968 772.807 115.064ZM808.961 91.64C805.889 91.64 803.201 92.1947 800.897 93.304C798.678 94.328 796.801 95.736 795.265 97.528C793.814 99.32 792.705 101.368 791.937 103.672C791.254 105.976 790.913 108.365 790.913 110.84C790.913 113.827 791.34 116.813 792.193 119.8C793.132 122.787 794.454 125.475 796.161 127.864C797.953 130.168 800.086 132.088 802.561 133.624C805.036 135.075 807.894 135.8 811.137 135.8C814.038 135.8 816.598 135.245 818.817 134.136C821.036 132.941 822.87 131.405 824.321 129.528C825.857 127.565 826.966 125.347 827.649 122.872C828.417 120.397 828.801 117.88 828.801 115.32C828.801 112.419 828.332 109.56 827.393 106.744C826.54 103.928 825.26 101.411 823.553 99.192C821.932 96.888 819.884 95.0533 817.409 93.688C814.934 92.3227 812.118 91.64 808.961 91.64ZM827.137 70.52C825.772 68.8133 824.108 67.448 822.145 66.424C820.268 65.4 818.476 64.888 816.769 64.888C812.844 64.888 809.43 65.8693 806.529 67.832C803.628 69.7093 801.196 72.056 799.233 74.872C797.356 77.688 795.862 80.76 794.753 84.088C793.644 87.3307 792.918 90.36 792.577 93.176C795.052 90.9573 797.825 89.4213 800.897 88.568C803.969 87.6293 807.169 87.16 810.497 87.16C814.849 87.16 818.646 87.928 821.889 89.464C825.217 90.9147 827.948 92.8773 830.081 95.352C832.3 97.7413 833.921 100.515 834.945 103.672C836.054 106.829 836.609 110.072 836.609 113.4C836.609 116.728 836.054 120.013 834.945 123.256C833.836 126.499 832.172 129.4 829.953 131.96C827.734 134.435 824.961 136.44 821.633 137.976C818.39 139.512 814.593 140.28 810.241 140.28C805.462 140.28 801.324 139.384 797.825 137.592C794.326 135.8 791.468 133.411 789.249 130.424C787.03 127.352 785.366 123.811 784.257 119.8C783.233 115.789 782.721 111.608 782.721 107.256C782.721 101.624 783.489 96.0347 785.025 90.488C786.646 84.856 788.993 79.8213 792.065 75.384C795.137 70.8613 798.892 67.192 803.329 64.376C807.766 61.56 812.844 60.152 818.561 60.152C819.756 60.152 820.993 60.2373 822.273 60.408C823.638 60.5787 824.833 60.7493 825.857 60.92C826.369 61.0053 826.881 61.0907 827.393 61.176C827.99 61.2613 828.332 61.304 828.417 61.304V70.52H827.137Z" fill="black"/>
</svg>
